<svg xmlns="http://www.w3.org/2000/svg" viewBox="0 0 512 512">
  <defs>
    <linearGradient id="bgGrad" x1="0%" y1="0%" x2="100%" y2="100%">
      <stop offset="0%" style="stop-color:#0f172a"/>
      <stop offset="100%" style="stop-color:#1e293b"/>
    </linearGradient>
    <linearGradient id="tealGrad" x1="0%" y1="0%" x2="100%" y2="100%">
      <stop offset="0%" style="stop-color:#14b8a6"/>
      <stop offset="100%" style="stop-color:#0d9488"/>
    </linearGradient>
  </defs>
  
  <!-- Background -->
  <rect width="512" height="512" rx="96" fill="url(#bgGrad)"/>
  
  <!-- Neural network nodes -->
  <circle cx="160" cy="160" r="24" fill="url(#tealGrad)" opacity="0.8"/>
  <circle cx="352" cy="160" r="24" fill="url(#tealGrad)" opacity="0.8"/>
  <circle cx="256" cy="256" r="32" fill="url(#tealGrad)"/>
  <circle cx="160" cy="352" r="24" fill="url(#tealGrad)" opacity="0.8"/>
  <circle cx="352" cy="352" r="24" fill="url(#tealGrad)" opacity="0.8"/>
  
  <!-- Connection lines -->
  <line x1="160" y1="160" x2="256" y2="256" stroke="#14b8a6" stroke-width="4" opacity="0.6"/>
  <line x1="352" y1="160" x2="256" y2="256" stroke="#14b8a6" stroke-width="4" opacity="0.6"/>
  <line x1="160" y1="352" x2="256" y2="256" stroke="#14b8a6" stroke-width="4" opacity="0.6"/>
  <line x1="352" y1="352" x2="256" y2="256" stroke="#14b8a6" stroke-width="4" opacity="0.6"/>
  <line x1="160" y1="160" x2="160" y2="352" stroke="#14b8a6" stroke-width="3" opacity="0.4"/>
  <line x1="352" y1="160" x2="352" y2="352" stroke="#14b8a6" stroke-width="3" opacity="0.4"/>
  <line x1="160" y1="160" x2="352" y2="160" stroke="#14b8a6" stroke-width="3" opacity="0.4"/>
  <line x1="160" y1="352" x2="352" y2="352" stroke="#14b8a6" stroke-width="3" opacity="0.4"/>
  
  <!-- AI text -->
  <text x="256" y="272" text-anchor="middle" font-family="Inter, Arial, sans-serif" font-size="48" font-weight="bold" fill="white">AI</text>
</svg>
